<?xml version="1.0"?>
<svg xmlns:rdf="http://www.w3.org/1999/02/22-rdf-syntax-ns#" xmlns="http://www.w3.org/2000/svg" xmlns:cc="http://web.resource.org/cc/" xmlns:xlink="http://www.w3.org/1999/xlink" xmlns:dc="http://purl.org/dc/elements/1.1/" xmlns:svg="http://www.w3.org/2000/svg" id="svg3436" viewBox="0 0 388 387.97" version="1.0">
  <defs id="defs3438">
    <linearGradient id="linearGradient4517" y2="63.094" gradientUnits="userSpaceOnUse" x2="8.8438" gradientTransform="matrix(1.0478 0 0 1.0478 148.14 323.42)" y1="324.88" x1="379.16">
      <stop id="stop3973" stop-color="#e4ffe4" offset="0"/>
      <stop id="stop3975" stop-color="#e4ffe4" stop-opacity="0" offset="1"/>
    </linearGradient>
    <linearGradient id="linearGradient4523" y2="154.75" gradientUnits="userSpaceOnUse" x2="159.26" gradientTransform="matrix(1.0478 0 0 1.0478 148.14 323.42)" y1="189.75" x1="193.13">
      <stop id="stop3859" stop-color="#fff" offset="0"/>
      <stop id="stop3861" stop-color="#fff" stop-opacity=".28962" offset="1"/>
    </linearGradient>
    <linearGradient id="linearGradient4527" y2="8.8438" gradientUnits="userSpaceOnUse" x2="324.91" gradientTransform="matrix(1.0478 0 0 1.0478 148.14 323.42)" y1="379.12" x1="63.094">
      <stop id="stop3934" stop-color="#faa" offset="0"/>
      <stop id="stop3936" stop-color="#faa" stop-opacity="0" offset="1"/>
    </linearGradient>
    <linearGradient id="linearGradient4530" y2="350.37" gradientUnits="userSpaceOnUse" x2="527.72" gradientTransform="matrix(1.0478 0 0 1.0478 -7.5183 -34.421)" y1="720.66" x1="157.41">
      <stop id="stop4653" stop-color="#fff" offset="0"/>
      <stop id="stop3323" stop-color="#bdbdbd" offset=".5"/>
      <stop id="stop4655" stop-color="#fff" offset="1"/>
    </linearGradient>
  </defs>
  <g id="layer1" transform="translate(-157.41 -332.69)">
    <g id="g4537">
      <path id="path4643" d="m351.41 332.69c-107.09 0-194 86.88-194 193.97 0 107.08 86.91 194 194 194s194-86.92 194-194c0-107.09-86.91-193.97-194-193.97zm0 142.53c28.4 0 51.47 23 51.47 51.4 0 28.41-23.07 51.51-51.47 51.51-28.41 0-51.48-23.1-51.48-51.51 0-28.4 23.07-51.4 51.48-51.4z" fill="url(#linearGradient4530)"/>
      <path id="path3962" d="m351.41 332.69v142.53c1.77 0 3.54 0.08 5.27 0.26 1.73 0.17 3.43 0.44 5.11 0.78 3.34 0.69 6.58 1.68 9.65 2.98 3.08 1.3 6.01 2.9 8.75 4.75s5.26 3.96 7.59 6.29l100.79-100.75c-8.78-8.78-18.4-16.73-28.72-23.71-10.32-6.97-21.34-12.96-32.94-17.87s-23.78-8.75-36.41-11.33c-12.62-2.59-25.71-3.93-39.09-3.93zm-36.38 230.34l-100.78 100.78c35.11 35.12 83.61 56.85 137.16 56.85v-142.53c-1.78 0-3.55-0.09-5.28-0.27-1.72-0.17-3.43-0.44-5.1-0.78-3.35-0.69-6.58-1.71-9.66-3.01-3.08-1.31-6.01-2.9-8.74-4.75-2.74-1.85-5.27-3.96-7.6-6.29z" fill="url(#linearGradient4527)"/>
      <path id="path3510" d="m351.41 437.46c-49.25 0-89.23 39.95-89.23 89.2 0 49.24 39.98 89.22 89.23 89.22s89.22-39.98 89.22-89.22c0-49.25-39.97-89.2-89.22-89.2zm0 32.52c31.23 0 56.71 25.4 56.71 56.64s-25.47 56.75-56.71 56.75c-31.25 0-56.71-25.51-56.71-56.75s25.47-56.64 56.71-56.64z" fill="#fff" fill-opacity=".4902"/>
      <path id="path3798" d="m351.41 337.93c-104.26 0-188.76 84.47-188.76 188.73 0 52.12 21.11 99.33 55.26 133.49l93.42-93.45c-10.27-10.28-16.63-24.46-16.63-40.08 0-31.24 25.47-56.64 56.71-56.64 15.61 0 29.8 6.34 40.07 16.6l93.42-93.38c-34.16-34.15-81.37-55.27-133.49-55.27z" fill="url(#linearGradient4523)" fill-opacity=".4902"/>
      <path id="path4003" d="m402.88 526.66c0 1.76-0.09 3.52-0.26 5.23-0.18 1.73-0.45 3.44-0.79 5.11-0.69 3.35-1.71 6.58-3.01 9.66-1.31 3.08-2.9 6-4.75 8.74s-3.96 5.3-6.29 7.63l100.79 100.78c35.11-35.11 56.84-83.61 56.84-137.15h-142.53z" fill="url(#linearGradient4517)"/>
      <path id="path3969" d="m214.25 389.53c-35.12 35.1-56.84 83.58-56.84 137.13h142.52v-0.04c0-1.77 0.09-3.54 0.27-5.27 0.17-1.73 0.44-3.43 0.78-5.11 0.69-3.34 1.71-6.55 3.01-9.62 1.31-3.08 2.9-6.01 4.75-8.75 1.85-2.73 3.96-5.27 6.29-7.59l-100.78-100.75z" fill="url(#linearGradient4517)"/>
      <path id="path3895" d="m351.41 341.67c-102.08 0-185.02 82.91-185.02 184.99 0 102.07 82.94 185.01 185.02 185.01 102.07 0 185.01-82.94 185.01-185.01 0-102.08-82.94-184.99-185.01-184.99zm0 9.73c96.81 0 175.28 78.44 175.28 175.26 0 96.81-78.47 175.28-175.28 175.28-96.82 0-175.29-78.47-175.29-175.28 0-96.82 78.47-175.26 175.29-175.26zm0 122.62c-29.01 0-52.67 23.6-52.67 52.61s23.65 52.69 52.67 52.69c29.01 0 52.66-23.68 52.66-52.69s-23.66-52.61-52.66-52.61zm0 9.73c23.75 0 42.93 19.13 42.93 42.88 0 23.74-19.2 42.96-42.93 42.96-23.74 0-42.94-19.22-42.94-42.96 0-23.75 19.19-42.88 42.94-42.88z" fill="#666"/>
    </g>
  </g>
  <metadata>
    <rdf:RDF>
      <cc:Work>
        <dc:format>image/svg+xml</dc:format>
        <dc:type rdf:resource="http://purl.org/dc/dcmitype/StillImage"/>
        <cc:license rdf:resource="http://creativecommons.org/licenses/publicdomain/"/>
        <dc:publisher>
          <cc:Agent rdf:about="http://openclipart.org/">
            <dc:title>Openclipart</dc:title>
          </cc:Agent>
        </dc:publisher>
        <dc:title>Compact Disc</dc:title>
        <dc:date>2007-12-13T05:30:42</dc:date>
        <dc:description>A compact disc icon.</dc:description>
        <dc:source>http://openclipart.org/detail/9865/compact-disc-by-barretr</dc:source>
        <dc:creator>
          <cc:Agent>
            <dc:title>barretr</dc:title>
          </cc:Agent>
        </dc:creator>
        <dc:subject>
          <rdf:Bag>
            <rdf:li>clip art</rdf:li>
            <rdf:li>clipart</rdf:li>
            <rdf:li>icon</rdf:li>
            <rdf:li>image</rdf:li>
            <rdf:li>media</rdf:li>
            <rdf:li>png</rdf:li>
            <rdf:li>public domain</rdf:li>
            <rdf:li>svg</rdf:li>
          </rdf:Bag>
        </dc:subject>
      </cc:Work>
      <cc:License rdf:about="http://creativecommons.org/licenses/publicdomain/">
        <cc:permits rdf:resource="http://creativecommons.org/ns#Reproduction"/>
        <cc:permits rdf:resource="http://creativecommons.org/ns#Distribution"/>
        <cc:permits rdf:resource="http://creativecommons.org/ns#DerivativeWorks"/>
      </cc:License>
    </rdf:RDF>
  </metadata>
</svg>
